<svg width="38" height="38" viewBox="0 0 38 38" fill="none" xmlns="http://www.w3.org/2000/svg">
<path fill-rule="evenodd" clip-rule="evenodd" d="M11.4008 3.80005C10.8969 3.80005 10.4136 4.00023 10.0573 4.35655C9.70096 4.71286 9.50078 5.19614 9.50078 5.70005V7.60005H7.60078C6.59296 7.60005 5.62641 8.0004 4.91378 8.71304C4.20114 9.42568 3.80078 10.3922 3.80078 11.4V30.4001C3.80078 31.4079 4.20114 32.3744 4.91378 33.0871C5.62641 33.7997 6.59296 34.2001 7.60078 34.2001H30.4008C31.4086 34.2001 32.3751 33.7997 33.0878 33.0871C33.8004 32.3744 34.2008 31.4079 34.2008 30.4001V11.4C34.2008 10.3922 33.8004 9.42568 33.0878 8.71304C32.3751 8.0004 31.4086 7.60005 30.4008 7.60005H28.5008V5.70005C28.5008 5.19614 28.3006 4.71286 27.9443 4.35655C27.588 4.00023 27.1047 3.80005 26.6008 3.80005C26.0969 3.80005 25.6136 4.00023 25.2573 4.35655C24.901 4.71286 24.7008 5.19614 24.7008 5.70005V7.60005H13.3008V5.70005C13.3008 5.19614 13.1006 4.71286 12.7443 4.35655C12.388 4.00023 11.9047 3.80005 11.4008 3.80005ZM11.4008 13.3C10.8969 13.3 10.4136 13.5002 10.0573 13.8565C9.70096 14.2129 9.50078 14.6961 9.50078 15.2C9.50078 15.704 9.70096 16.1872 10.0573 16.5436C10.4136 16.8999 10.8969 17.1 11.4008 17.1H26.6008C27.1047 17.1 27.588 16.8999 27.9443 16.5436C28.3006 16.1872 28.5008 15.704 28.5008 15.2C28.5008 14.6961 28.3006 14.2129 27.9443 13.8565C27.588 13.5002 27.1047 13.3 26.6008 13.3H11.4008Z" fill="black"/>
</svg>
