<svg width="38" height="35" viewBox="0 0 38 35" fill="none" xmlns="http://www.w3.org/2000/svg">
<path fill-rule="evenodd" clip-rule="evenodd" d="M11.4008 3.59766C10.8969 3.59766 10.4136 3.77887 10.0573 4.10143C9.70096 4.424 9.50078 4.86148 9.50078 5.31766V7.03766H7.60078C6.59296 7.03766 5.62641 7.40008 4.91378 8.04521C4.20114 8.69033 3.80078 9.56531 3.80078 10.4777V27.6777C3.80078 28.59 4.20114 29.465 4.91378 30.1101C5.62641 30.7552 6.59296 31.1177 7.60078 31.1177H30.4008C31.4086 31.1177 32.3751 30.7552 33.0878 30.1101C33.8004 29.465 34.2008 28.59 34.2008 27.6777V10.4777C34.2008 9.56531 33.8004 8.69033 33.0878 8.04521C32.3751 7.40008 31.4086 7.03766 30.4008 7.03766H28.5008V5.31766C28.5008 4.86148 28.3006 4.424 27.9443 4.10143C27.588 3.77887 27.1047 3.59766 26.6008 3.59766C26.0969 3.59766 25.6136 3.77887 25.2573 4.10143C24.901 4.424 24.7008 4.86148 24.7008 5.31766V7.03766H13.3008V5.31766C13.3008 4.86148 13.1006 4.424 12.7443 4.10143C12.388 3.77887 11.9047 3.59766 11.4008 3.59766ZM11.4008 12.1977C10.8969 12.1977 10.4136 12.3789 10.0573 12.7014C9.70096 13.024 9.50078 13.4615 9.50078 13.9177C9.50078 14.3738 9.70096 14.8113 10.0573 15.1339C10.4136 15.4564 10.8969 15.6377 11.4008 15.6377H26.6008C27.1047 15.6377 27.588 15.4564 27.9443 15.1339C28.3006 14.8113 28.5008 14.3738 28.5008 13.9177C28.5008 13.4615 28.3006 13.024 27.9443 12.7014C27.588 12.3789 27.1047 12.1977 26.6008 12.1977H11.4008Z" fill="white"/>
</svg>
