<svg width="38" height="36" viewBox="0 0 38 36" fill="none" xmlns="http://www.w3.org/2000/svg">
<path fill-rule="evenodd" clip-rule="evenodd" d="M19.0008 31.9282C23.0321 31.9282 26.8983 30.4785 29.7488 27.898C32.5994 25.3175 34.2008 21.8176 34.2008 18.1682C34.2008 14.5188 32.5994 11.0189 29.7488 8.43841C26.8983 5.85791 23.0321 4.4082 19.0008 4.4082C14.9695 4.4082 11.1033 5.85791 8.25276 8.43841C5.40221 11.0189 3.80078 14.5188 3.80078 18.1682C3.80078 21.8176 5.40221 25.3175 8.25276 27.898C11.1033 30.4785 14.9695 31.9282 19.0008 31.9282ZM20.9008 11.2882C20.9008 10.832 20.7006 10.3945 20.3443 10.072C19.988 9.74942 19.5047 9.5682 19.0008 9.5682C18.4969 9.5682 18.0136 9.74942 17.6573 10.072C17.301 10.3945 17.1008 10.832 17.1008 11.2882V18.1682C17.1009 18.6243 17.3011 19.0618 17.6575 19.3842L23.0307 24.2501C23.2072 24.4099 23.4168 24.5367 23.6474 24.6232C23.8781 24.7097 24.1253 24.7542 24.3749 24.7542C24.6246 24.7542 24.8718 24.7097 25.1024 24.6232C25.3331 24.5367 25.5427 24.4099 25.7192 24.2501C25.8957 24.0903 26.0357 23.9006 26.1313 23.6918C26.2268 23.483 26.276 23.2592 26.276 23.0332C26.276 22.8072 26.2268 22.5834 26.1313 22.3746C26.0357 22.1658 25.8957 21.9761 25.7192 21.8163L20.9008 17.4561V11.2882Z" fill="white"/>
</svg>
