<svg width="38" height="38" viewBox="0 0 38 38" fill="none" xmlns="http://www.w3.org/2000/svg">
<path fill-rule="evenodd" clip-rule="evenodd" d="M19.0008 34.2001C23.0321 34.2001 26.8983 32.5986 29.7488 29.7481C32.5994 26.8975 34.2008 23.0313 34.2008 19C34.2008 14.9688 32.5994 11.1026 29.7488 8.25203C26.8983 5.40147 23.0321 3.80005 19.0008 3.80005C14.9695 3.80005 11.1033 5.40147 8.25276 8.25203C5.40221 11.1026 3.80078 14.9688 3.80078 19C3.80078 23.0313 5.40221 26.8975 8.25276 29.7481C11.1033 32.5986 14.9695 34.2001 19.0008 34.2001ZM20.9008 11.4C20.9008 10.8961 20.7006 10.4129 20.3443 10.0565C19.988 9.70023 19.5047 9.50005 19.0008 9.50005C18.4969 9.50005 18.0136 9.70023 17.6573 10.0565C17.301 10.4129 17.1008 10.8961 17.1008 11.4V19C17.1009 19.5039 17.3011 19.9871 17.6575 20.3433L23.0307 25.7185C23.2072 25.895 23.4168 26.035 23.6474 26.1305C23.8781 26.2261 24.1253 26.2753 24.3749 26.2753C24.6246 26.2753 24.8718 26.2261 25.1024 26.1305C25.3331 26.035 25.5427 25.895 25.7192 25.7185C25.8957 25.5419 26.0357 25.3323 26.1313 25.1017C26.2268 24.8711 26.276 24.6238 26.276 24.3742C26.276 24.1245 26.2268 23.8773 26.1313 23.6467C26.0357 23.416 25.8957 23.2065 25.7192 23.03L20.9008 18.2135V11.4Z" fill="black"/>
</svg>
