<svg width="38" height="38" viewBox="0 0 38 38" fill="none" xmlns="http://www.w3.org/2000/svg">
<path d="M3.80664 11.1797L19.0009 18.7759L34.1952 11.1797C34.139 10.2115 33.7147 9.30152 33.0093 8.63603C32.3039 7.97053 31.3707 7.59992 30.4009 7.6001H7.60094C6.63115 7.59992 5.69799 7.97053 4.99258 8.63603C4.28717 9.30152 3.86289 10.2115 3.80664 11.1797Z" fill="black"/>
<path d="M34.2008 15.4243L19.0008 23.0243L3.80078 15.4243V26.6001C3.80078 27.6079 4.20114 28.5745 4.91378 29.2871C5.62641 29.9998 6.59296 30.4001 7.60078 30.4001H30.4008C31.4086 30.4001 32.3751 29.9998 33.0878 29.2871C33.8004 28.5745 34.2008 27.6079 34.2008 26.6001V15.4243Z" fill="black"/>
</svg>
