<svg width="38" height="35" viewBox="0 0 38 35" fill="none" xmlns="http://www.w3.org/2000/svg">
<path fill-rule="evenodd" clip-rule="evenodd" d="M13.3 14.7775C14.8117 14.7775 16.2616 14.2339 17.3305 13.2662C18.3995 12.2985 19 10.986 19 9.61752C19 8.249 18.3995 6.93654 17.3305 5.96885C16.2616 5.00116 14.8117 4.45752 13.3 4.45752C11.7883 4.45752 10.3384 5.00116 9.26949 5.96885C8.20053 6.93654 7.6 8.249 7.6 9.61752C7.6 10.986 8.20053 12.2985 9.26949 13.2662C10.3384 14.2339 11.7883 14.7775 13.3 14.7775ZM0 30.2575C-2.60261e-08 28.6764 0.344015 27.1108 1.0124 25.65C1.68079 24.1893 2.66046 22.862 3.89548 21.744C5.1305 20.6259 6.59668 19.7391 8.21031 19.134C9.82394 18.5289 11.5534 18.2175 13.3 18.2175C15.0466 18.2175 16.7761 18.5289 18.3897 19.134C20.0033 19.7391 21.4695 20.6259 22.7045 21.744C23.9395 22.862 24.9192 24.1893 25.5876 25.65C26.256 27.1108 26.6 28.6764 26.6 30.2575H0Z" fill="white"/>
</svg>
