<svg width="38" height="38" viewBox="0 0 38 38" fill="none" xmlns="http://www.w3.org/2000/svg">
<path fill-rule="evenodd" clip-rule="evenodd" d="M19.3 16.15C20.8117 16.15 22.2616 15.5495 23.3305 14.4805C24.3995 13.4116 25 11.9617 25 10.45C25 8.93827 24.3995 7.48845 23.3305 6.41949C22.2616 5.35053 20.8117 4.75 19.3 4.75C17.7883 4.75 16.3384 5.35053 15.2695 6.41949C14.2005 7.48845 13.6 8.93827 13.6 10.45C13.6 11.9617 14.2005 13.4116 15.2695 14.4805C16.3384 15.5495 17.7883 16.15 19.3 16.15ZM6 33.25C6 31.5034 6.34401 29.7739 7.0124 28.1603C7.68079 26.5467 8.66046 25.0805 9.89548 23.8455C11.1305 22.6105 12.5967 21.6308 14.2103 20.9624C15.8239 20.294 17.5534 19.95 19.3 19.95C21.0466 19.95 22.7761 20.294 24.3897 20.9624C26.0033 21.6308 27.4695 22.6105 28.7045 23.8455C29.9395 25.0805 30.9192 26.5467 31.5876 28.1603C32.256 29.7739 32.6 31.5034 32.6 33.25H6Z" fill="black"/>
</svg>
